STARTFONT 2.3
FONT -FontForge-Fredoka One-Book-R-Normal--9-90-72-72-P-51-ISO10646-1
SIZE 9 72 72  2
FONTBOUNDINGBOX 12 11 -1 -2
COMMENT "Generated by fontforge, http://fontforge.sourceforge.net"
COMMENT "Copyright (c) 2011 Milena B Brandao (milenabbrandao@gmail.com), with Reserved Font Name "Fredoka""
STARTPROPERTIES 40
FOUNDRY "FontForge"
FAMILY_NAME "Fredoka One"
WEIGHT_NAME "Book"
SLANT "R"
SETWIDTH_NAME "Normal"
ADD_STYLE_NAME ""
PIXEL_SIZE 9
POINT_SIZE 90
RESOLUTION_X 72
RESOLUTION_Y 72
SPACING "P"
AVERAGE_WIDTH 51
CHARSET_REGISTRY "ISO10646"
CHARSET_ENCODING "1"
FONTNAME_REGISTRY ""
CHARSET_COLLECTIONS "ISO10646-1"
BITS_PER_PIXEL 2
FONT_NAME "FredokaOne-Regular"
FACE_NAME "Fredoka One"
COPYRIGHT "Copyright (c) 2011 Milena B Brandao (milenabbrandao@gmail.com), with Reserved Font Name "Fredoka""
FONT_VERSION "1.001"
FONT_ASCENT 7
FONT_DESCENT 2
UNDERLINE_POSITION -1
UNDERLINE_THICKNESS 1
X_HEIGHT 4
CAP_HEIGHT 6
RAW_ASCENT 800
RAW_DESCENT 200
NORM_SPACE 2
RELATIVE_WEIGHT 40
RELATIVE_SETWIDTH 50
SUPERSCRIPT_X 0
SUPERSCRIPT_Y 4
SUPERSCRIPT_SIZE 5
SUBSCRIPT_X 0
SUBSCRIPT_Y 1
SUBSCRIPT_SIZE 5
AVG_LOWERCASE_WIDTH 49
AVG_UPPERCASE_WIDTH 62
ENDPROPERTIES
CHARS 235
STARTCHAR space
ENCODING 32
SWIDTH 253 0
DWIDTH 2 0
BBX 1 1 0 0
BITMAP
00
ENDCHAR
STARTCHAR exclam
ENCODING 33
SWIDTH 267 0
DWIDTH 2 0
BBX 2 7 0 0
BITMAP
60
B0
B0
B0
60
60
B0
ENDCHAR
STARTCHAR quotedbl
ENCODING 34
SWIDTH 429 0
DWIDTH 4 0
BBX 4 4 0 3
BITMAP
55
AA
99
44
ENDCHAR
STARTCHAR numbersign
ENCODING 35
SWIDTH 749 0
DWIDTH 7 0
BBX 7 7 0 0
BITMAP
0850
0CA0
7FF4
2DE0
BEE0
7AE0
35C0
ENDCHAR
STARTCHAR dollar
ENCODING 36
SWIDTH 475 0
DWIDTH 4 0
BBX 4 8 0 -1
BITMAP
18
2D
A5
79
1B
BB
28
14
ENDCHAR
STARTCHAR percent
ENCODING 37
SWIDTH 838 0
DWIDTH 8 0
BBX 7 7 0 0
BITMAP
2420
AD90
A980
2A50
02BC
099C
0878
ENDCHAR
STARTCHAR ampersand
ENCODING 38
SWIDTH 748 0
DWIDTH 7 0
BBX 7 7 0 0
BITMAP
1E40
3B80
3B40
3E10
BFB0
BBF0
7FB4
ENDCHAR
STARTCHAR quotesingle
ENCODING 39
SWIDTH 208 0
DWIDTH 2 0
BBX 2 4 0 3
BITMAP
50
A0
90
40
ENDCHAR
STARTCHAR parenleft
ENCODING 40
SWIDTH 384 0
DWIDTH 3 0
BBX 4 9 0 -2
BITMAP
1D
34
70
A0
A0
A0
70
34
1D
ENDCHAR
STARTCHAR parenright
ENCODING 41
SWIDTH 384 0
DWIDTH 3 0
BBX 3 9 0 -2
BITMAP
A0
38
1C
1C
1C
1C
1C
28
A0
ENDCHAR
STARTCHAR asterisk
ENCODING 42
SWIDTH 503 0
DWIDTH 5 0
BBX 5 5 0 2
BITMAP
1800
AE00
BF40
7E00
1100
ENDCHAR
STARTCHAR plus
ENCODING 43
SWIDTH 527 0
DWIDTH 5 0
BBX 5 5 0 0
BITMAP
0800
1D00
BF40
1D00
0800
ENDCHAR
STARTCHAR comma
ENCODING 44
SWIDTH 238 0
DWIDTH 2 0
BBX 2 4 0 -2
BITMAP
50
B0
60
40
ENDCHAR
STARTCHAR hyphen
ENCODING 45
SWIDTH 433 0
DWIDTH 4 0
BBX 4 2 0 1
BITMAP
69
A9
ENDCHAR
STARTCHAR period
ENCODING 46
SWIDTH 237 0
DWIDTH 2 0
BBX 2 2 0 0
BITMAP
60
A0
ENDCHAR
STARTCHAR slash
ENCODING 47
SWIDTH 526 0
DWIDTH 5 0
BBX 5 8 0 -1
BITMAP
0340
0740
0E00
1D00
2800
7400
B000
5000
ENDCHAR
STARTCHAR zero
ENCODING 48
SWIDTH 608 0
DWIDTH 5 0
BBX 6 7 0 0
BITMAP
1A00
7F80
B2C0
A1D0
B1C0
7BC0
2F40
ENDCHAR
STARTCHAR one
ENCODING 49
SWIDTH 407 0
DWIDTH 4 0
BBX 4 7 0 0
BITMAP
08
3D
BD
1D
1D
1D
1D
ENDCHAR
STARTCHAR two
ENCODING 50
SWIDTH 609 0
DWIDTH 5 0
BBX 6 7 0 0
BITMAP
1900
7F80
B2C0
53C0
1F40
BE80
BFD0
ENDCHAR
STARTCHAR three
ENCODING 51
SWIDTH 608 0
DWIDTH 5 0
BBX 5 7 0 0
BITMAP
1A00
7F80
66C0
0F80
56C0
BAC0
2F40
ENDCHAR
STARTCHAR four
ENCODING 52
SWIDTH 592 0
DWIDTH 5 0
BBX 5 7 0 0
BITMAP
2540
76C0
76C0
B6C0
BFC0
02C0
02C0
ENDCHAR
STARTCHAR five
ENCODING 53
SWIDTH 530 0
DWIDTH 5 0
BBX 5 7 0 0
BITMAP
2A00
7F40
B400
BF00
5740
AB40
7E00
ENDCHAR
STARTCHAR six
ENCODING 54
SWIDTH 560 0
DWIDTH 5 0
BBX 5 7 0 0
BITMAP
0640
2F80
7800
BE00
BB80
B780
2F40
ENDCHAR
STARTCHAR seven
ENCODING 55
SWIDTH 561 0
DWIDTH 5 0
BBX 5 7 0 0
BITMAP
6A40
BF80
0740
0F00
1D00
2C00
3800
ENDCHAR
STARTCHAR eight
ENCODING 56
SWIDTH 582 0
DWIDTH 5 0
BBX 5 7 0 0
BITMAP
1A00
7F80
B780
7F40
B6C0
B7C0
2F40
ENDCHAR
STARTCHAR nine
ENCODING 57
SWIDTH 560 0
DWIDTH 5 0
BBX 5 7 0 0
BITMAP
1900
BB40
B380
7F80
0780
6F00
B900
ENDCHAR
STARTCHAR colon
ENCODING 58
SWIDTH 238 0
DWIDTH 2 0
BBX 2 5 0 0
BITMAP
50
B0
00
60
A0
ENDCHAR
STARTCHAR semicolon
ENCODING 59
SWIDTH 237 0
DWIDTH 2 0
BBX 2 7 0 -2
BITMAP
50
B0
00
60
B0
60
40
ENDCHAR
STARTCHAR less
ENCODING 60
SWIDTH 627 0
DWIDTH 6 0
BBX 6 6 0 0
BITMAP
02D0
1F80
B900
7D00
0B80
01D0
ENDCHAR
STARTCHAR equal
ENCODING 61
SWIDTH 478 0
DWIDTH 4 0
BBX 4 4 0 0
BITMAP
6A
6A
6A
6A
ENDCHAR
STARTCHAR greater
ENCODING 62
SWIDTH 627 0
DWIDTH 6 0
BBX 6 6 0 0
BITMAP
B400
6E00
07D0
0BD0
7E00
A000
ENDCHAR
STARTCHAR question
ENCODING 63
SWIDTH 512 0
DWIDTH 5 0
BBX 5 7 0 0
BITMAP
2900
BB40
5740
1E00
1800
1800
1C00
ENDCHAR
STARTCHAR at
ENCODING 64
SWIDTH 908 0
DWIDTH 8 0
BBX 8 7 0 -1
BITMAP
1BE4
396D
A7E6
9DA7
ABD6
74BD
1F50
ENDCHAR
STARTCHAR A
ENCODING 65
SWIDTH 765 0
DWIDTH 7 0
BBX 7 7 0 0
BITMAP
0200
0B40
0FC0
2ED0
3EF0
BAB4
A038
ENDCHAR
STARTCHAR B
ENCODING 66
SWIDTH 646 0
DWIDTH 6 0
BBX 6 7 0 0
BITMAP
6A40
BFC0
B1D0
B7D0
B1E0
BAD0
BF80
ENDCHAR
STARTCHAR C
ENCODING 67
SWIDTH 679 0
DWIDTH 6 0
BBX 6 7 0 0
BITMAP
0680
3FE0
B450
B000
B000
7EA0
1FD0
ENDCHAR
STARTCHAR D
ENCODING 68
SWIDTH 704 0
DWIDTH 6 0
BBX 6 7 0 0
BITMAP
6900
BFD0
B1F0
B0B0
B0B0
BAD0
BF40
ENDCHAR
STARTCHAR E
ENCODING 69
SWIDTH 638 0
DWIDTH 6 0
BBX 6 7 0 0
BITMAP
6A90
BFD0
B000
BF40
B940
BA90
BFD0
ENDCHAR
STARTCHAR F
ENCODING 70
SWIDTH 637 0
DWIDTH 6 0
BBX 6 7 0 0
BITMAP
6A90
BFD0
B000
BF40
B940
B000
B000
ENDCHAR
STARTCHAR G
ENCODING 71
SWIDTH 714 0
DWIDTH 6 0
BBX 6 7 0 0
BITMAP
0680
3FE0
B400
B2F0
B1B0
7EB0
1FD0
ENDCHAR
STARTCHAR H
ENCODING 72
SWIDTH 699 0
DWIDTH 6 0
BBX 6 7 0 0
BITMAP
5050
B0B0
B0B0
BFF0
B5B0
B0B0
B0A0
ENDCHAR
STARTCHAR I
ENCODING 73
SWIDTH 257 0
DWIDTH 2 0
BBX 2 7 0 0
BITMAP
50
B0
B0
B0
B0
B0
B0
ENDCHAR
STARTCHAR J
ENCODING 74
SWIDTH 549 0
DWIDTH 5 0
BBX 5 7 0 0
BITMAP
0140
0380
0380
0380
0380
AB40
7E00
ENDCHAR
STARTCHAR K
ENCODING 75
SWIDTH 639 0
DWIDTH 6 0
BBX 6 7 0 0
BITMAP
5080
B2D0
BB40
BD00
BF00
B7C0
B1D0
ENDCHAR
STARTCHAR L
ENCODING 76
SWIDTH 587 0
DWIDTH 5 0
BBX 5 7 0 0
BITMAP
5000
B000
B000
B000
B000
B540
BFC0
ENDCHAR
STARTCHAR M
ENCODING 77
SWIDTH 870 0
DWIDTH 8 0
BBX 8 7 0 0
BITMAP
5009
B82D
BD7D
BBED
B3DD
B00D
B00D
ENDCHAR
STARTCHAR N
ENCODING 78
SWIDTH 720 0
DWIDTH 6 0
BBX 6 7 0 0
BITMAP
5060
B870
BD70
BBB0
B3F0
B1F0
B0B0
ENDCHAR
STARTCHAR O
ENCODING 79
SWIDTH 775 0
DWIDTH 7 0
BBX 7 7 0 0
BITMAP
0640
3FE0
B474
B038
B038
7EF4
1FD0
ENDCHAR
STARTCHAR P
ENCODING 80
SWIDTH 632 0
DWIDTH 6 0
BBX 6 7 0 0
BITMAP
6A00
BFC0
B1D0
B6D0
BF80
B400
B000
ENDCHAR
STARTCHAR Q
ENCODING 81
SWIDTH 830 0
DWIDTH 7 0
BBX 7 7 0 0
BITMAP
0640
3FE0
B474
B038
B038
7EF8
1FEC
ENDCHAR
STARTCHAR R
ENCODING 82
SWIDTH 631 0
DWIDTH 6 0
BBX 6 7 0 0
BITMAP
6A00
BFC0
B1D0
B6D0
BFC0
B6D0
B0D0
ENDCHAR
STARTCHAR S
ENCODING 83
SWIDTH 583 0
DWIDTH 5 0
BBX 5 7 0 0
BITMAP
1A00
7F80
B400
7F40
07C0
B7C0
7F40
ENDCHAR
STARTCHAR T
ENCODING 84
SWIDTH 731 0
DWIDTH 7 0
BBX 7 7 0 0
BITMAP
6AA4
AFA4
0700
0700
0700
0700
0700
ENDCHAR
STARTCHAR U
ENCODING 85
SWIDTH 726 0
DWIDTH 7 0
BBX 7 7 0 0
BITMAP
5020
B074
B074
B074
B0B0
7AE0
1F80
ENDCHAR
STARTCHAR V
ENCODING 86
SWIDTH 783 0
DWIDTH 7 0
BBX 7 7 0 0
BITMAP
5014
B038
7474
2CE0
1ED0
0B80
0740
ENDCHAR
STARTCHAR W
ENCODING 87
SWIDTH 999 0
DWIDTH 9 0
BBX 9 7 0 0
BITMAP
508140
B1D380
76E740
3BFB00
2F7E00
1E2D00
0D1C00
ENDCHAR
STARTCHAR X
ENCODING 88
SWIDTH 741 0
DWIDTH 7 0
BBX 7 7 0 0
BITMAP
5024
B4B4
2ED0
0F80
2FD0
78F0
A074
ENDCHAR
STARTCHAR Y
ENCODING 89
SWIDTH 686 0
DWIDTH 6 0
BBX 6 7 0 0
BITMAP
5050
B4F0
3AD0
1F80
0B00
0B00
0A00
ENDCHAR
STARTCHAR Z
ENCODING 90
SWIDTH 643 0
DWIDTH 6 0
BBX 6 7 0 0
BITMAP
6A80
BFD0
0780
0F00
2D00
7E90
BFD0
ENDCHAR
STARTCHAR bracketleft
ENCODING 91
SWIDTH 348 0
DWIDTH 3 0
BBX 3 9 0 -2
BITMAP
BC
B4
A0
A0
A0
A0
A0
B4
BC
ENDCHAR
STARTCHAR backslash
ENCODING 92
SWIDTH 528 0
DWIDTH 5 0
BBX 5 8 0 -1
BITMAP
A000
B000
3800
2C00
0E00
0B00
0340
0100
ENDCHAR
STARTCHAR bracketright
ENCODING 93
SWIDTH 348 0
DWIDTH 3 0
BBX 3 9 0 -2
BITMAP
B8
68
28
28
28
28
28
68
B8
ENDCHAR
STARTCHAR asciicircum
ENCODING 94
SWIDTH 526 0
DWIDTH 5 0
BBX 4 3 0 2
BITMAP
18
7F
52
ENDCHAR
STARTCHAR underscore
ENCODING 95
SWIDTH 826 0
DWIDTH 7 0
BBX 8 2 0 -2
BITMAP
1554
BFFD
ENDCHAR
STARTCHAR grave
ENCODING 96
SWIDTH 482 0
DWIDTH 4 0
BBX 3 2 1 5
BITMAP
E4
64
ENDCHAR
STARTCHAR a
ENCODING 97
SWIDTH 596 0
DWIDTH 5 0
BBX 5 5 0 0
BITMAP
1A80
7FC0
B2C0
BBC0
2EC0
ENDCHAR
STARTCHAR b
ENCODING 98
SWIDTH 592 0
DWIDTH 5 0
BBX 5 7 0 0
BITMAP
A000
B000
BA00
BF80
B2C0
BBC0
BF40
ENDCHAR
STARTCHAR c
ENCODING 99
SWIDTH 517 0
DWIDTH 5 0
BBX 5 5 0 0
BITMAP
1A00
7F40
B000
BA00
2F40
ENDCHAR
STARTCHAR d
ENCODING 100
SWIDTH 598 0
DWIDTH 5 0
BBX 5 7 0 0
BITMAP
01C0
02C0
1AC0
7FC0
B2C0
BBC0
2EC0
ENDCHAR
STARTCHAR e
ENCODING 101
SWIDTH 573 0
DWIDTH 5 0
BBX 5 5 0 0
BITMAP
1A00
7B80
BB80
BA40
2F80
ENDCHAR
STARTCHAR f
ENCODING 102
SWIDTH 450 0
DWIDTH 4 0
BBX 4 7 0 0
BITMAP
1E
3D
BE
BE
38
38
34
ENDCHAR
STARTCHAR g
ENCODING 103
SWIDTH 585 0
DWIDTH 5 0
BBX 5 7 0 -2
BITMAP
1A80
7FC0
B2C0
BBC0
2BC0
2780
2E00
ENDCHAR
STARTCHAR h
ENCODING 104
SWIDTH 605 0
DWIDTH 5 0
BBX 5 7 0 0
BITMAP
A000
B000
BA00
BF80
B2C0
B1C0
B1C0
ENDCHAR
STARTCHAR i
ENCODING 105
SWIDTH 255 0
DWIDTH 2 0
BBX 2 7 0 0
BITMAP
A0
50
60
B0
B0
B0
B0
ENDCHAR
STARTCHAR j
ENCODING 106
SWIDTH 252 0
DWIDTH 2 0
BBX 3 9 -1 -2
BITMAP
28
14
18
2C
2C
2C
2C
B8
E0
ENDCHAR
STARTCHAR k
ENCODING 107
SWIDTH 536 0
DWIDTH 5 0
BBX 5 7 0 0
BITMAP
A000
B000
B100
BB40
BD00
BF40
B340
ENDCHAR
STARTCHAR l
ENCODING 108
SWIDTH 327 0
DWIDTH 3 0
BBX 3 7 0 0
BITMAP
A0
B0
B0
B0
B0
B4
78
ENDCHAR
STARTCHAR m
ENCODING 109
SWIDTH 851 0
DWIDTH 8 0
BBX 8 5 0 0
BITMAP
6A64
BFFC
B39D
B39D
B39D
ENDCHAR
STARTCHAR n
ENCODING 110
SWIDTH 606 0
DWIDTH 5 0
BBX 5 5 0 0
BITMAP
6A00
BF80
B2C0
B1C0
B1C0
ENDCHAR
STARTCHAR o
ENCODING 111
SWIDTH 600 0
DWIDTH 5 0
BBX 5 5 0 0
BITMAP
1A00
7FC0
B1C0
BBC0
2F40
ENDCHAR
STARTCHAR p
ENCODING 112
SWIDTH 582 0
DWIDTH 5 0
BBX 5 7 0 -2
BITMAP
6A00
BF80
B2C0
BB80
BA00
B000
B000
ENDCHAR
STARTCHAR q
ENCODING 113
SWIDTH 582 0
DWIDTH 5 0
BBX 5 7 0 -2
BITMAP
1A80
7FC0
B2C0
BBC0
2BC0
02C0
0280
ENDCHAR
STARTCHAR r
ENCODING 114
SWIDTH 457 0
DWIDTH 4 0
BBX 4 5 0 0
BITMAP
6A
BA
B0
B0
B0
ENDCHAR
STARTCHAR s
ENCODING 115
SWIDTH 489 0
DWIDTH 4 0
BBX 4 5 0 0
BITMAP
2A
B9
7E
6B
7E
ENDCHAR
STARTCHAR t
ENCODING 116
SWIDTH 449 0
DWIDTH 4 0
BBX 4 7 0 0
BITMAP
10
38
BE
BE
38
39
2E
ENDCHAR
STARTCHAR u
ENCODING 117
SWIDTH 606 0
DWIDTH 5 0
BBX 5 5 0 0
BITMAP
6180
B1C0
B2C0
7BC0
2EC0
ENDCHAR
STARTCHAR v
ENCODING 118
SWIDTH 638 0
DWIDTH 6 0
BBX 6 5 0 0
BITMAP
6090
B1D0
3B80
1F40
0E00
ENDCHAR
STARTCHAR w
ENCODING 119
SWIDTH 793 0
DWIDTH 7 0
BBX 7 5 0 0
BITMAP
9218
B7B8
7FF4
3EF0
1CA0
ENDCHAR
STARTCHAR x
ENCODING 120
SWIDTH 567 0
DWIDTH 5 0
BBX 5 5 0 0
BITMAP
6180
BB80
2F00
7F80
A280
ENDCHAR
STARTCHAR y
ENCODING 121
SWIDTH 604 0
DWIDTH 5 0
BBX 5 7 0 -2
BITMAP
6080
B6C0
3B80
1F40
0E00
1D00
2C00
ENDCHAR
STARTCHAR z
ENCODING 122
SWIDTH 586 0
DWIDTH 5 0
BBX 5 5 0 0
BITMAP
6A80
6F80
1E00
7E80
BFC0
ENDCHAR
STARTCHAR braceleft
ENCODING 123
SWIDTH 381 0
DWIDTH 3 0
BBX 4 9 0 -2
BITMAP
1D
28
34
34
B0
34
24
28
1D
ENDCHAR
STARTCHAR bar
ENCODING 124
SWIDTH 217 0
DWIDTH 2 0
BBX 2 9 0 -2
BITMAP
90
A0
A0
A0
A0
A0
A0
A0
A0
ENDCHAR
STARTCHAR braceright
ENCODING 125
SWIDTH 381 0
DWIDTH 3 0
BBX 4 9 0 -2
BITMAP
A0
74
34
34
2D
34
34
74
A0
ENDCHAR
STARTCHAR asciitilde
ENCODING 126
SWIDTH 651 0
DWIDTH 6 0
BBX 5 3 0 1
BITMAP
1440
7FC0
1640
ENDCHAR
STARTCHAR exclamdown
ENCODING 161
SWIDTH 268 0
DWIDTH 2 0
BBX 2 7 0 -2
BITMAP
60
B0
10
B0
B0
B0
B0
ENDCHAR
STARTCHAR cent
ENCODING 162
SWIDTH 434 0
DWIDTH 4 0
BBX 4 7 0 -1
BITMAP
18
2C
BE
A0
7E
18
14
ENDCHAR
STARTCHAR sterling
ENCODING 163
SWIDTH 675 0
DWIDTH 6 0
BBX 6 7 0 0
BITMAP
0640
2FE0
3840
BE00
6D00
3D50
3FF0
ENDCHAR
STARTCHAR currency
ENCODING 164
SWIDTH 677 0
DWIDTH 6 0
BBX 6 7 0 0
BITMAP
A060
7FD0
75D0
A0A0
75D0
7FD0
A060
ENDCHAR
STARTCHAR yen
ENCODING 165
SWIDTH 677 0
DWIDTH 6 0
BBX 6 7 0 0
BITMAP
5050
B0E0
3AD0
2F80
2F80
2F80
1A40
ENDCHAR
STARTCHAR brokenbar
ENCODING 166
SWIDTH 215 0
DWIDTH 2 0
BBX 2 9 0 -2
BITMAP
90
A0
A0
A0
00
A0
A0
A0
A0
ENDCHAR
STARTCHAR section
ENCODING 167
SWIDTH 560 0
DWIDTH 5 0
BBX 5 9 0 -2
BITMAP
2E00
BB40
B500
7F40
B280
7F80
1780
B780
6E00
ENDCHAR
STARTCHAR dieresis
ENCODING 168
SWIDTH 489 0
DWIDTH 4 0
BBX 5 2 0 5
BITMAP
A340
6240
ENDCHAR
STARTCHAR copyright
ENCODING 169
SWIDTH 711 0
DWIDTH 6 0
BBX 6 6 0 1
BITMAP
1A40
6660
9A60
9820
9B60
2A90
ENDCHAR
STARTCHAR ordfeminine
ENCODING 170
SWIDTH 445 0
DWIDTH 4 0
BBX 4 4 0 3
BITMAP
15
BE
AA
7E
ENDCHAR
STARTCHAR guillemotleft
ENCODING 171
SWIDTH 668 0
DWIDTH 6 0
BBX 6 5 0 0
BITMAP
0850
39E0
B380
7AD0
1CA0
ENDCHAR
STARTCHAR logicalnot
ENCODING 172
SWIDTH 526 0
DWIDTH 5 0
BBX 5 3 0 1
BITMAP
BF80
6B80
0140
ENDCHAR
STARTCHAR registered
ENCODING 174
SWIDTH 711 0
DWIDTH 6 0
BBX 6 6 0 1
BITMAP
1A40
6A60
8EA0
8F60
99A0
2A90
ENDCHAR
STARTCHAR degree
ENCODING 176
SWIDTH 407 0
DWIDTH 4 0
BBX 4 4 0 3
BITMAP
68
99
BD
10
ENDCHAR
STARTCHAR plusminus
ENCODING 177
SWIDTH 505 0
DWIDTH 5 0
BBX 5 5 0 0
BITMAP
1800
BF40
6D00
1900
BF00
ENDCHAR
STARTCHAR twosuperior
ENCODING 178
SWIDTH 455 0
DWIDTH 4 0
BBX 4 5 0 2
BITMAP
28
BE
5A
7D
BF
ENDCHAR
STARTCHAR threesuperior
ENCODING 179
SWIDTH 457 0
DWIDTH 4 0
BBX 4 5 0 2
BITMAP
28
6A
1E
AB
7D
ENDCHAR
STARTCHAR acute
ENCODING 180
SWIDTH 605 0
DWIDTH 5 0
BBX 3 2 1 5
BITMAP
68
64
ENDCHAR
STARTCHAR mu
ENCODING 181
SWIDTH 601 0
DWIDTH 5 0
BBX 5 7 0 -2
BITMAP
6180
B2C0
B2C0
BBC0
BEC0
B000
A000
ENDCHAR
STARTCHAR paragraph
ENCODING 182
SWIDTH 614 0
DWIDTH 6 0
BBX 5 8 0 -2
BITMAP
1A40
BEC0
BDC0
6DC0
0DC0
0DC0
0DC0
0DC0
ENDCHAR
STARTCHAR periodcentered
ENCODING 183
SWIDTH 237 0
DWIDTH 2 0
BBX 2 2 0 2
BITMAP
50
B0
ENDCHAR
STARTCHAR cedilla
ENCODING 184
SWIDTH 559 0
DWIDTH 5 0
BBX 3 3 1 -2
BITMAP
10
64
60
ENDCHAR
STARTCHAR onesuperior
ENCODING 185
SWIDTH 321 0
DWIDTH 3 0
BBX 3 5 0 2
BITMAP
14
B8
78
28
24
ENDCHAR
STARTCHAR ordmasculine
ENCODING 186
SWIDTH 439 0
DWIDTH 4 0
BBX 4 4 0 3
BITMAP
14
7D
AA
7D
ENDCHAR
STARTCHAR guillemotright
ENCODING 187
SWIDTH 669 0
DWIDTH 6 0
BBX 6 5 0 0
BITMAP
5200
B6C0
2CE0
7AD0
A340
ENDCHAR
STARTCHAR onequarter
ENCODING 188
SWIDTH 786 0
DWIDTH 7 0
BBX 7 7 0 0
BITMAP
2490
7480
2640
2694
09E8
19F8
2014
ENDCHAR
STARTCHAR onehalf
ENCODING 189
SWIDTH 804 0
DWIDTH 7 0
BBX 7 7 0 0
BITMAP
2490
7480
2640
26A0
09E4
18B4
20F8
ENDCHAR
STARTCHAR threequarters
ENCODING 190
SWIDTH 842 0
DWIDTH 8 0
BBX 7 7 0 0
BITMAP
2820
1D90
5D80
7A58
06AC
08BC
180C
ENDCHAR
STARTCHAR questiondown
ENCODING 191
SWIDTH 511 0
DWIDTH 5 0
BBX 5 7 0 -2
BITMAP
1800
1C00
0400
2C00
B100
BB40
2E00
ENDCHAR
STARTCHAR Agrave
ENCODING 192
SWIDTH 765 0
DWIDTH 7 0
BBX 7 9 0 0
BITMAP
0900
0B40
0200
0B40
0FC0
2ED0
3EF0
BAB4
A038
ENDCHAR
STARTCHAR Aacute
ENCODING 193
SWIDTH 765 0
DWIDTH 7 0
BBX 7 9 0 0
BITMAP
0180
0B80
0200
0B40
0FC0
2ED0
3EF0
BAB4
A038
ENDCHAR
STARTCHAR Acircumflex
ENCODING 194
SWIDTH 765 0
DWIDTH 7 0
BBX 7 9 0 0
BITMAP
0640
1EC0
0200
0B40
0FC0
2ED0
3EF0
BAB4
A038
ENDCHAR
STARTCHAR Atilde
ENCODING 195
SWIDTH 765 0
DWIDTH 7 0
BBX 7 9 0 0
BITMAP
0A80
1A80
0200
0B40
0FC0
2ED0
3EF0
BAB4
A038
ENDCHAR
STARTCHAR Adieresis
ENCODING 196
SWIDTH 765 0
DWIDTH 7 0
BBX 7 9 0 0
BITMAP
1890
1890
0200
0B40
0FC0
2ED0
3EF0
BAB4
A038
ENDCHAR
STARTCHAR Aring
ENCODING 197
SWIDTH 765 0
DWIDTH 7 0
BBX 7 9 0 0
BITMAP
0100
0940
0640
0B40
0FC0
2ED0
3EF0
BAB4
A038
ENDCHAR
STARTCHAR AE
ENCODING 198
SWIDTH 1148 0
DWIDTH 10 0
BBX 10 7 0 0
BITMAP
002AA0
00FFF0
02F800
0B7FC0
2FB940
BABAA0
A02FF0
ENDCHAR
STARTCHAR Ccedilla
ENCODING 199
SWIDTH 679 0
DWIDTH 6 0
BBX 6 9 0 -2
BITMAP
0680
3FE0
B450
B000
B000
7EA0
1FD0
0240
0240
ENDCHAR
STARTCHAR Egrave
ENCODING 200
SWIDTH 638 0
DWIDTH 6 0
BBX 6 9 0 0
BITMAP
0900
0B40
6A90
BFD0
B000
BF40
B940
BA90
BFD0
ENDCHAR
STARTCHAR Eacute
ENCODING 201
SWIDTH 638 0
DWIDTH 6 0
BBX 6 9 0 0
BITMAP
0640
0E40
6A90
BFD0
B000
BF40
B940
BA90
BFD0
ENDCHAR
STARTCHAR Ecircumflex
ENCODING 202
SWIDTH 638 0
DWIDTH 6 0
BBX 6 9 0 0
BITMAP
1A40
2A80
6A90
BFD0
B000
BF40
B940
BA90
BFD0
ENDCHAR
STARTCHAR Edieresis
ENCODING 203
SWIDTH 638 0
DWIDTH 6 0
BBX 6 9 0 0
BITMAP
2580
2580
6A90
BFD0
B000
BF40
B940
BA90
BFD0
ENDCHAR
STARTCHAR Igrave
ENCODING 204
SWIDTH 267 0
DWIDTH 2 0
BBX 3 9 -1 0
BITMAP
24
7C
18
2C
2C
2C
2C
2C
1C
ENDCHAR
STARTCHAR Iacute
ENCODING 205
SWIDTH 269 0
DWIDTH 2 0
BBX 3 9 0 0
BITMAP
68
B4
60
B0
B0
B0
B0
B0
70
ENDCHAR
STARTCHAR Icircumflex
ENCODING 206
SWIDTH 270 0
DWIDTH 2 0
BBX 4 9 -1 0
BITMAP
29
6A
18
2C
2C
2C
2C
2C
1C
ENDCHAR
STARTCHAR Idieresis
ENCODING 207
SWIDTH 268 0
DWIDTH 2 0
BBX 4 9 -1 0
BITMAP
A6
A6
18
2C
2C
2C
2C
2C
1C
ENDCHAR
STARTCHAR Eth
ENCODING 208
SWIDTH 775 0
DWIDTH 7 0
BBX 7 7 0 0
BITMAP
2A40
3FE0
3874
BD38
7838
3EF0
3F90
ENDCHAR
STARTCHAR Ntilde
ENCODING 209
SWIDTH 720 0
DWIDTH 6 0
BBX 6 9 0 0
BITMAP
0980
1A80
5060
B870
BD70
BBB0
B3F0
B1F0
B0B0
ENDCHAR
STARTCHAR Ograve
ENCODING 210
SWIDTH 775 0
DWIDTH 7 0
BBX 7 9 0 0
BITMAP
0900
0B80
0640
3FE0
B474
B038
B038
7EF4
1FD0
ENDCHAR
STARTCHAR Oacute
ENCODING 211
SWIDTH 775 0
DWIDTH 7 0
BBX 7 9 0 0
BITMAP
0180
0B80
0640
3FE0
B474
B038
B038
7EF4
1FD0
ENDCHAR
STARTCHAR Ocircumflex
ENCODING 212
SWIDTH 775 0
DWIDTH 7 0
BBX 7 9 0 0
BITMAP
0640
0EC0
0640
3FE0
B474
B038
B038
7EF4
1FD0
ENDCHAR
STARTCHAR Otilde
ENCODING 213
SWIDTH 775 0
DWIDTH 7 0
BBX 7 9 0 0
BITMAP
0690
0A80
0640
3FE0
B474
B038
B038
7EF4
1FD0
ENDCHAR
STARTCHAR Odieresis
ENCODING 214
SWIDTH 775 0
DWIDTH 7 0
BBX 7 9 0 0
BITMAP
1890
1890
0640
3FE0
B474
B038
B038
7EF4
1FD0
ENDCHAR
STARTCHAR multiply
ENCODING 215
SWIDTH 521 0
DWIDTH 5 0
BBX 5 5 0 0
BITMAP
5100
BB40
3E00
7F40
5200
ENDCHAR
STARTCHAR Oslash
ENCODING 216
SWIDTH 775 0
DWIDTH 7 0
BBX 7 8 0 -1
BITMAP
06A0
3FF0
B6F8
B778
BB38
7FF4
2FD0
1400
ENDCHAR
STARTCHAR Ugrave
ENCODING 217
SWIDTH 726 0
DWIDTH 7 0
BBX 7 9 0 0
BITMAP
1900
1F00
5020
B074
B074
B074
B0B0
7AE0
1F80
ENDCHAR
STARTCHAR Uacute
ENCODING 218
SWIDTH 726 0
DWIDTH 7 0
BBX 7 9 0 0
BITMAP
0180
0B80
5020
B074
B074
B074
B0B0
7AE0
1F80
ENDCHAR
STARTCHAR Ucircumflex
ENCODING 219
SWIDTH 726 0
DWIDTH 7 0
BBX 7 9 0 0
BITMAP
0640
1EC0
5020
B074
B074
B074
B0B0
7AE0
1F80
ENDCHAR
STARTCHAR Udieresis
ENCODING 220
SWIDTH 726 0
DWIDTH 7 0
BBX 7 9 0 0
BITMAP
1980
2990
5020
B074
B074
B074
B0B0
7AE0
1F80
ENDCHAR
STARTCHAR Yacute
ENCODING 221
SWIDTH 686 0
DWIDTH 6 0
BBX 6 9 0 0
BITMAP
0640
0E40
5050
B4F0
3AD0
1F80
0B00
0B00
0A00
ENDCHAR
STARTCHAR Thorn
ENCODING 222
SWIDTH 634 0
DWIDTH 6 0
BBX 6 7 0 0
BITMAP
5000
BA40
BFC0
B1D0
BAD0
BF80
B000
ENDCHAR
STARTCHAR germandbls
ENCODING 223
SWIDTH 633 0
DWIDTH 6 0
BBX 6 8 0 -1
BITMAP
2A40
BB80
B740
B740
B2D0
B5D0
BBC0
1000
ENDCHAR
STARTCHAR agrave
ENCODING 224
SWIDTH 596 0
DWIDTH 5 0
BBX 5 7 0 0
BITMAP
1A00
0A00
1A80
7FC0
B2C0
BBC0
2EC0
ENDCHAR
STARTCHAR aacute
ENCODING 225
SWIDTH 596 0
DWIDTH 5 0
BBX 5 7 0 0
BITMAP
0B00
1900
1A80
7FC0
B2C0
BBC0
2EC0
ENDCHAR
STARTCHAR acircumflex
ENCODING 226
SWIDTH 596 0
DWIDTH 5 0
BBX 5 7 0 0
BITMAP
1E40
1A40
1A80
7FC0
B2C0
BBC0
2EC0
ENDCHAR
STARTCHAR atilde
ENCODING 227
SWIDTH 596 0
DWIDTH 5 0
BBX 5 7 0 0
BITMAP
1E80
1640
1A80
7FC0
B2C0
BBC0
2EC0
ENDCHAR
STARTCHAR adieresis
ENCODING 228
SWIDTH 596 0
DWIDTH 5 0
BBX 5 7 0 0
BITMAP
3680
2580
1A80
7FC0
B2C0
BBC0
2EC0
ENDCHAR
STARTCHAR aring
ENCODING 229
SWIDTH 596 0
DWIDTH 5 0
BBX 5 7 0 0
BITMAP
0500
0A00
1A80
7FC0
B2C0
BBC0
2EC0
ENDCHAR
STARTCHAR ae
ENCODING 230
SWIDTH 910 0
DWIDTH 8 0
BBX 8 5 0 0
BITMAP
2A68
BBEE
27EF
A7E9
7EBE
ENDCHAR
STARTCHAR ccedilla
ENCODING 231
SWIDTH 524 0
DWIDTH 5 0
BBX 5 7 0 -2
BITMAP
1A00
7F40
B000
BA40
2F40
0900
0900
ENDCHAR
STARTCHAR egrave
ENCODING 232
SWIDTH 573 0
DWIDTH 5 0
BBX 5 7 0 0
BITMAP
2900
1A00
1A00
7B80
BB80
BA40
2F80
ENDCHAR
STARTCHAR eacute
ENCODING 233
SWIDTH 573 0
DWIDTH 5 0
BBX 5 7 0 0
BITMAP
0B00
1900
1A00
7B80
BB80
BA40
2F80
ENDCHAR
STARTCHAR ecircumflex
ENCODING 234
SWIDTH 573 0
DWIDTH 5 0
BBX 5 7 0 0
BITMAP
2E40
2640
1A00
7B80
BB80
BA40
2F80
ENDCHAR
STARTCHAR edieresis
ENCODING 235
SWIDTH 573 0
DWIDTH 5 0
BBX 5 7 0 0
BITMAP
7340
6240
1A00
7B80
BB80
BA40
2F80
ENDCHAR
STARTCHAR igrave
ENCODING 236
SWIDTH 255 0
DWIDTH 2 0
BBX 3 7 -1 0
BITMAP
78
28
18
2C
2C
2C
2C
ENDCHAR
STARTCHAR iacute
ENCODING 237
SWIDTH 255 0
DWIDTH 2 0
BBX 3 7 0 0
BITMAP
68
A4
60
B0
B0
B0
B0
ENDCHAR
STARTCHAR icircumflex
ENCODING 238
SWIDTH 255 0
DWIDTH 2 0
BBX 4 7 -1 0
BITMAP
6E
66
18
2C
2C
2C
2C
ENDCHAR
STARTCHAR idieresis
ENCODING 239
SWIDTH 255 0
DWIDTH 2 0
BBX 4 7 -1 0
BITMAP
A7
56
18
2C
2C
2C
2C
ENDCHAR
STARTCHAR eth
ENCODING 240
SWIDTH 585 0
DWIDTH 5 0
BBX 5 7 0 0
BITMAP
1D00
1F00
1A80
7FC0
B2C0
BB80
2F40
ENDCHAR
STARTCHAR ntilde
ENCODING 241
SWIDTH 606 0
DWIDTH 5 0
BBX 5 7 0 0
BITMAP
2E40
2600
6A00
BF80
B2C0
B1C0
B1C0
ENDCHAR
STARTCHAR ograve
ENCODING 242
SWIDTH 600 0
DWIDTH 5 0
BBX 5 7 0 0
BITMAP
1900
1A00
1A00
7FC0
B1C0
BBC0
2F40
ENDCHAR
STARTCHAR oacute
ENCODING 243
SWIDTH 600 0
DWIDTH 5 0
BBX 5 7 0 0
BITMAP
0B00
1900
1A00
7FC0
B1C0
BBC0
2F40
ENDCHAR
STARTCHAR ocircumflex
ENCODING 244
SWIDTH 600 0
DWIDTH 5 0
BBX 5 7 0 0
BITMAP
2E40
2640
1A00
7FC0
B1C0
BBC0
2F40
ENDCHAR
STARTCHAR otilde
ENCODING 245
SWIDTH 600 0
DWIDTH 5 0
BBX 5 7 0 0
BITMAP
2E40
2600
1A00
7FC0
B1C0
BBC0
2F40
ENDCHAR
STARTCHAR odieresis
ENCODING 246
SWIDTH 600 0
DWIDTH 5 0
BBX 5 7 0 0
BITMAP
7280
2240
1A00
7FC0
B1C0
BBC0
2F40
ENDCHAR
STARTCHAR divide
ENCODING 247
SWIDTH 503 0
DWIDTH 5 0
BBX 5 5 0 0
BITMAP
1800
1800
BF40
1900
1C00
ENDCHAR
STARTCHAR oslash
ENCODING 248
SWIDTH 600 0
DWIDTH 5 0
BBX 5 8 0 -2
BITMAP
0280
1B80
7FC0
B1C0
BBC0
3F40
7400
1000
ENDCHAR
STARTCHAR ugrave
ENCODING 249
SWIDTH 606 0
DWIDTH 5 0
BBX 5 7 0 0
BITMAP
1900
1A00
6180
B1C0
B2C0
7BC0
2EC0
ENDCHAR
STARTCHAR uacute
ENCODING 250
SWIDTH 606 0
DWIDTH 5 0
BBX 5 7 0 0
BITMAP
0B40
0900
6180
B1C0
B2C0
7BC0
2EC0
ENDCHAR
STARTCHAR ucircumflex
ENCODING 251
SWIDTH 606 0
DWIDTH 5 0
BBX 5 7 0 0
BITMAP
2E40
2640
6180
B1C0
B2C0
7BC0
2EC0
ENDCHAR
STARTCHAR udieresis
ENCODING 252
SWIDTH 606 0
DWIDTH 5 0
BBX 5 7 0 0
BITMAP
7680
2140
6180
B1C0
B2C0
7BC0
2EC0
ENDCHAR
STARTCHAR yacute
ENCODING 253
SWIDTH 604 0
DWIDTH 5 0
BBX 5 9 0 -2
BITMAP
0B40
0900
6080
B6C0
3B80
1F40
0E00
1D00
2C00
ENDCHAR
STARTCHAR thorn
ENCODING 254
SWIDTH 580 0
DWIDTH 5 0
BBX 5 9 0 -2
BITMAP
A000
A000
BA00
BF80
B2C0
BB80
BE00
A000
A000
ENDCHAR
STARTCHAR ydieresis
ENCODING 255
SWIDTH 604 0
DWIDTH 5 0
BBX 5 9 0 -2
BITMAP
3680
2540
6080
B6C0
3B80
1F40
0E00
1D00
2C00
ENDCHAR
STARTCHAR dotlessi
ENCODING 305
SWIDTH 255 0
DWIDTH 2 0
BBX 2 5 0 0
BITMAP
60
B0
B0
B0
B0
ENDCHAR
STARTCHAR Lslash
ENCODING 321
SWIDTH 687 0
DWIDTH 6 0
BBX 6 7 0 0
BITMAP
1400
2C00
2D00
7E00
7C00
2D50
2FF0
ENDCHAR
STARTCHAR lslash
ENCODING 322
SWIDTH 468 0
DWIDTH 4 0
BBX 4 7 0 0
BITMAP
28
28
2D
BE
78
2D
1E
ENDCHAR
STARTCHAR OE
ENCODING 338
SWIDTH 1092 0
DWIDTH 10 0
BBX 10 7 0 0
BITMAP
06AA90
3FFFE0
B4B000
B0BF80
B0B940
7EBA90
1BFFE0
ENDCHAR
STARTCHAR oe
ENCODING 339
SWIDTH 944 0
DWIDTH 9 0
BBX 8 5 0 0
BITMAP
1A69
7FFB
B1EB
BBE5
2FBE
ENDCHAR
STARTCHAR Scaron
ENCODING 352
SWIDTH 583 0
DWIDTH 5 0
BBX 5 9 0 0
BITMAP
2600
2E00
1A00
7F80
B400
7F40
07C0
B7C0
7F40
ENDCHAR
STARTCHAR scaron
ENCODING 353
SWIDTH 489 0
DWIDTH 4 0
BBX 4 7 0 0
BITMAP
AA
69
2A
B9
7E
6B
7E
ENDCHAR
STARTCHAR Ydieresis
ENCODING 376
SWIDTH 686 0
DWIDTH 6 0
BBX 6 9 0 0
BITMAP
2580
2580
5050
B4F0
3AD0
1F80
0B00
0B00
0A00
ENDCHAR
STARTCHAR Zcaron
ENCODING 381
SWIDTH 643 0
DWIDTH 6 0
BBX 6 9 0 0
BITMAP
2640
1E40
6A80
BFD0
0780
0F00
2D00
7E90
BFD0
ENDCHAR
STARTCHAR zcaron
ENCODING 382
SWIDTH 586 0
DWIDTH 5 0
BBX 5 7 0 0
BITMAP
3B40
1A00
6A80
6F80
1E00
7E80
BFC0
ENDCHAR
STARTCHAR florin
ENCODING 402
SWIDTH 529 0
DWIDTH 5 0
BBX 5 9 0 -2
BITMAP
0240
0F40
2E40
7F80
1D00
2C00
2C00
7800
F400
ENDCHAR
STARTCHAR circumflex
ENCODING 710
SWIDTH 603 0
DWIDTH 5 0
BBX 4 2 1 5
BITMAP
B9
99
ENDCHAR
STARTCHAR caron
ENCODING 711
SWIDTH 600 0
DWIDTH 5 0
BBX 4 2 1 5
BITMAP
ED
68
ENDCHAR
STARTCHAR dotaccent
ENCODING 729
SWIDTH 285 0
DWIDTH 3 0
BBX 2 2 0 6
BITMAP
70
60
ENDCHAR
STARTCHAR ring
ENCODING 730
SWIDTH 378 0
DWIDTH 3 0
BBX 3 3 0 6
BITMAP
10
68
68
ENDCHAR
STARTCHAR ogonek
ENCODING 731
SWIDTH 570 0
DWIDTH 5 0
BBX 2 3 1 -2
BITMAP
10
60
20
ENDCHAR
STARTCHAR tilde
ENCODING 732
SWIDTH 584 0
DWIDTH 5 0
BBX 3 2 1 5
BITMAP
A8
58
ENDCHAR
STARTCHAR endash
ENCODING 8211
SWIDTH 561 0
DWIDTH 5 0
BBX 5 3 0 1
BITMAP
1500
BFC0
1540
ENDCHAR
STARTCHAR emdash
ENCODING 8212
SWIDTH 693 0
DWIDTH 6 0
BBX 6 3 0 1
BITMAP
1540
BFF0
1550
ENDCHAR
STARTCHAR quoteleft
ENCODING 8216
SWIDTH 237 0
DWIDTH 2 0
BBX 2 4 0 3
BITMAP
10
90
B0
50
ENDCHAR
STARTCHAR quoteright
ENCODING 8217
SWIDTH 237 0
DWIDTH 2 0
BBX 2 4 0 3
BITMAP
50
B0
60
40
ENDCHAR
STARTCHAR quotesinglbase
ENCODING 8218
SWIDTH 237 0
DWIDTH 2 0
BBX 2 4 0 -2
BITMAP
50
B0
60
40
ENDCHAR
STARTCHAR quotedblleft
ENCODING 8220
SWIDTH 482 0
DWIDTH 4 0
BBX 4 4 0 3
BITMAP
11
96
BB
55
ENDCHAR
STARTCHAR quotedblright
ENCODING 8221
SWIDTH 482 0
DWIDTH 4 0
BBX 4 4 0 3
BITMAP
56
BB
63
44
ENDCHAR
STARTCHAR quotedblbase
ENCODING 8222
SWIDTH 482 0
DWIDTH 4 0
BBX 4 4 0 -2
BITMAP
56
B7
66
44
ENDCHAR
STARTCHAR dagger
ENCODING 8224
SWIDTH 527 0
DWIDTH 5 0
BBX 5 9 0 -2
BITMAP
1800
1C00
6E40
BE40
1C00
1C00
1C00
1C00
1800
ENDCHAR
STARTCHAR daggerdbl
ENCODING 8225
SWIDTH 527 0
DWIDTH 5 0
BBX 5 9 0 -2
BITMAP
1800
1C00
6E40
BE40
1C00
BF40
6E40
1C00
1800
ENDCHAR
STARTCHAR bullet
ENCODING 8226
SWIDTH 342 0
DWIDTH 3 0
BBX 3 3 0 1
BITMAP
B8
B8
10
ENDCHAR
STARTCHAR ellipsis
ENCODING 8230
SWIDTH 911 0
DWIDTH 8 0
BBX 8 2 0 0
BITMAP
5186
A28B
ENDCHAR
STARTCHAR perthousand
ENCODING 8240
SWIDTH 1223 0
DWIDTH 11 0
BBX 11 7 0 0
BITMAP
242000
AD9000
A98000
2A5050
02BDF4
099E98
1878B4
ENDCHAR
STARTCHAR guilsinglleft
ENCODING 8249
SWIDTH 383 0
DWIDTH 3 0
BBX 3 5 0 0
BITMAP
08
3C
B4
78
1C
ENDCHAR
STARTCHAR guilsinglright
ENCODING 8250
SWIDTH 383 0
DWIDTH 3 0
BBX 4 5 0 0
BITMAP
50
B4
2D
78
A0
ENDCHAR
STARTCHAR fraction
ENCODING 8260
SWIDTH 433 0
DWIDTH 4 0
BBX 5 7 0 0
BITMAP
0180
0200
0600
0800
1400
2000
5000
ENDCHAR
STARTCHAR Euro
ENCODING 8364
SWIDTH 612 0
DWIDTH 6 0
BBX 6 7 0 0
BITMAP
0BD0
2E80
BE40
7940
BE80
2E80
0BD0
ENDCHAR
STARTCHAR trademark
ENCODING 8482
SWIDTH 840 0
DWIDTH 8 0
BBX 8 4 0 2
BITMAP
A988
79ED
25FD
2588
ENDCHAR
STARTCHAR minus
ENCODING 8722
SWIDTH 581 0
DWIDTH 5 0
BBX 5 3 0 1
BITMAP
1500
BFC0
1540
ENDCHAR
STARTCHAR f_f
ENCODING 64256
SWIDTH 803 0
DWIDTH 7 0
BBX 7 7 0 0
BITMAP
1E78
3DB4
BEF8
BFF8
38E0
38E0
34A0
ENDCHAR
STARTCHAR fi
ENCODING 64257
SWIDTH 709 0
DWIDTH 6 0
BBX 6 7 0 0
BITMAP
1E70
3D60
BE60
BEB0
38B0
38B0
3470
ENDCHAR
STARTCHAR fl
ENCODING 64258
SWIDTH 774 0
DWIDTH 7 0
BBX 7 7 0 0
BITMAP
1EB0
3DB0
BEB0
BEB0
38B0
38B4
3478
ENDCHAR
STARTCHAR f_f_i
ENCODING 64259
SWIDTH 1059 0
DWIDTH 10 0
BBX 10 7 0 0
BITMAP
1E79C0
3DB580
BEF980
BFF9D0
38E1D0
38E1D0
34A1C0
ENDCHAR
STARTCHAR .notdef
ENCODING -1
SWIDTH 500 0
DWIDTH 5 0
BBX 1 1 0 0
BITMAP
00
ENDCHAR
STARTCHAR .null
ENCODING -1
SWIDTH 0 0
DWIDTH 0 0
BBX 1 1 0 0
BITMAP
00
ENDCHAR
STARTCHAR nonmarkingreturn
ENCODING -1
SWIDTH 333 0
DWIDTH 3 0
BBX 1 1 0 0
BITMAP
00
ENDCHAR
STARTCHAR f_t
ENCODING -1
SWIDTH 814 0
DWIDTH 7 0
BBX 7 7 0 0
BITMAP
1E50
3DA0
BEF8
BFF8
38A0
38B4
347C
ENDCHAR
STARTCHAR t_t
ENCODING -1
SWIDTH 794 0
DWIDTH 7 0
BBX 7 7 0 0
BITMAP
1040
38E0
BEF8
BFF8
38E0
39F4
1E78
ENDCHAR
STARTCHAR l_l
ENCODING -1
SWIDTH 626 0
DWIDTH 6 0
BBX 6 7 0 0
BITMAP
A340
B740
B740
B740
B740
B790
76D0
ENDCHAR
STARTCHAR j_j
ENCODING -1
SWIDTH 521 0
DWIDTH 5 0
BBX 6 9 -1 -2
BITMAP
18D0
1480
1880
2DD0
2DD0
2DD0
2DD0
7AD0
F780
ENDCHAR
ENDFONT
